# Blender 4.4.3
# www.blender.org
mtllib Gizmo.mtl
o Xaxis
v 0.000000 -0.000000 -0.037500
v 0.750000 -0.000000 -0.037500
v 0.000000 -0.007316 -0.036779
v 0.750000 -0.007316 -0.036779
v 0.000000 -0.014351 -0.034645
v 0.750000 -0.014351 -0.034645
v 0.000000 -0.020834 -0.031180
v 0.750000 -0.020834 -0.031180
v 0.000000 -0.026516 -0.026516
v 0.750000 -0.026516 -0.026516
v 0.000000 -0.031180 -0.020834
v 0.750000 -0.031180 -0.020834
v 0.000000 -0.034645 -0.014351
v 0.750000 -0.034645 -0.014351
v 0.000000 -0.036779 -0.007316
v 0.750000 -0.036779 -0.007316
v 0.000000 -0.037500 0.000000
v 0.750000 -0.037500 0.000000
v 0.000000 -0.036779 0.007316
v 0.750000 -0.036779 0.007316
v 0.000000 -0.034645 0.014351
v 0.750000 -0.034645 0.014351
v 0.000000 -0.031180 0.020834
v 0.750000 -0.031180 0.020834
v 0.000000 -0.026516 0.026516
v 0.750000 -0.026516 0.026516
v 0.000000 -0.020834 0.031180
v 0.750000 -0.020834 0.031180
v 0.000000 -0.014351 0.034645
v 0.750000 -0.014351 0.034645
v 0.000000 -0.007316 0.036779
v 0.750000 -0.007316 0.036779
v 0.000000 0.000000 0.037500
v 0.750000 0.000000 0.037500
v 0.000000 0.007316 0.036779
v 0.750000 0.007316 0.036779
v 0.000000 0.014351 0.034645
v 0.750000 0.014351 0.034645
v 0.000000 0.020834 0.031180
v 0.750000 0.020834 0.031180
v 0.000000 0.026516 0.026516
v 0.750000 0.026516 0.026516
v 0.000000 0.031180 0.020834
v 0.750000 0.031180 0.020834
v 0.000000 0.034645 0.014351
v 0.750000 0.034645 0.014351
v 0.000000 0.036779 0.007316
v 0.750000 0.036779 0.007316
v 0.000000 0.037500 -0.000000
v 0.750000 0.037500 -0.000000
v 0.000000 0.036779 -0.007316
v 0.750000 0.036779 -0.007316
v 0.000000 0.034645 -0.014351
v 0.750000 0.034645 -0.014351
v 0.000000 0.031180 -0.020834
v 0.750000 0.031180 -0.020834
v 0.000000 0.026516 -0.026516
v 0.750000 0.026516 -0.026516
v 0.000000 0.020834 -0.031180
v 0.750000 0.020834 -0.031180
v 0.000000 0.014351 -0.034645
v 0.750000 0.014351 -0.034645
v 0.000000 0.007316 -0.036779
v 0.750000 0.007316 -0.036779
v 0.750000 -0.000000 -0.075000
v 0.750000 -0.014632 -0.073559
v 0.750000 -0.028702 -0.069291
v 0.750000 -0.041668 -0.062360
v 0.750000 -0.053033 -0.053033
v 0.750000 -0.062360 -0.041668
v 0.750000 -0.069291 -0.028701
v 0.750000 -0.073559 -0.014632
v 0.750000 -0.075000 0.000000
v 0.750000 -0.073559 0.014632
v 0.750000 -0.069291 0.028702
v 0.750000 -0.062360 0.041668
v 0.750000 -0.053033 0.053033
v 0.750000 -0.041668 0.062360
v 0.750000 -0.028701 0.069291
v 0.750000 -0.014632 0.073559
v 0.750000 0.000000 0.075000
v 0.750000 0.014632 0.073559
v 0.750000 0.028702 0.069291
v 0.750000 0.041668 0.062360
v 0.750000 0.053033 0.053033
v 0.750000 0.062360 0.041668
v 0.750000 0.069291 0.028701
v 0.750000 0.073559 0.014632
v 0.750000 0.075000 -0.000000
v 0.750000 0.073559 -0.014632
v 0.750000 0.069291 -0.028702
v 0.750000 0.062360 -0.041668
v 0.750000 0.053033 -0.053033
v 0.750000 0.041668 -0.062360
v 0.750000 0.028701 -0.069291
v 0.750000 0.014632 -0.073559
v 1.050000 0.000000 0.000000
vn -0.0000 -0.0000 -1.0000
vn -0.0000 -0.1951 -0.9808
vn -0.0000 -0.3827 -0.9239
vn -0.0000 -0.5556 -0.8315
vn -0.0000 -0.7071 -0.7071
vn -0.0000 -0.8315 -0.5556
vn -0.0000 -0.9239 -0.3827
vn -0.0000 -0.9808 -0.1951
vn -0.0000 -1.0000 -0.0000
vn -0.0000 -0.9808 0.1951
vn -0.0000 -0.9239 0.3827
vn -0.0000 -0.8315 0.5556
vn -0.0000 -0.7071 0.7071
vn -0.0000 -0.5556 0.8315
vn -0.0000 -0.3827 0.9239
vn -0.0000 -0.1951 0.9808
vn -0.0000 -0.0000 1.0000
vn -0.0000 0.1951 0.9808
vn -0.0000 0.3827 0.9239
vn -0.0000 0.5556 0.8315
vn -0.0000 0.7071 0.7071
vn -0.0000 0.8315 0.5556
vn -0.0000 0.9239 0.3827
vn -0.0000 0.9808 0.1951
vn -0.0000 1.0000 -0.0000
vn -0.0000 0.9808 -0.1951
vn -0.0000 0.9239 -0.3827
vn -0.0000 0.8315 -0.5556
vn -0.0000 0.7071 -0.7071
vn -0.0000 0.5556 -0.8315
vn -0.0000 0.3827 -0.9239
vn 1.0000 -0.0000 -0.0000
vn -0.0000 0.1951 -0.9808
vn -1.0000 -0.0000 -0.0000
vn 0.2425 -0.0000 -0.9701
vn 0.2425 -0.1893 -0.9515
vn 0.2425 -0.3713 -0.8963
vn 0.2425 -0.5390 -0.8066
vn 0.2425 -0.6860 -0.6860
vn 0.2425 -0.8066 -0.5390
vn 0.2425 -0.8963 -0.3712
vn 0.2425 -0.9515 -0.1893
vn 0.2425 -0.9701 -0.0000
vn 0.2425 -0.9515 0.1893
vn 0.2425 -0.8963 0.3713
vn 0.2425 -0.8066 0.5390
vn 0.2425 -0.6860 0.6860
vn 0.2425 -0.5390 0.8066
vn 0.2425 -0.3712 0.8963
vn 0.2425 -0.1893 0.9515
vn 0.2425 -0.0000 0.9701
vn 0.2425 0.1893 0.9515
vn 0.2425 0.3713 0.8963
vn 0.2425 0.5390 0.8066
vn 0.2425 0.6860 0.6860
vn 0.2425 0.8066 0.5390
vn 0.2425 0.8963 0.3712
vn 0.2425 0.9515 0.1893
vn 0.2425 0.9701 -0.0000
vn 0.2425 0.9515 -0.1893
vn 0.2425 0.8963 -0.3713
vn 0.2425 0.8066 -0.5390
vn 0.2425 0.6860 -0.6860
vn 0.2425 0.5390 -0.8066
vn 0.2425 0.3712 -0.8963
vn 0.2425 0.1893 -0.9515
vn -1.0000 0.0001 -0.0000
vn -1.0000 -0.0001 -0.0000
vt 1.000000 1.000000
vt 0.968750 0.500000
vt 1.000000 0.500000
vt 0.968750 1.000000
vt 0.937500 0.500000
vt 0.937500 1.000000
vt 0.906250 0.500000
vt 0.906250 1.000000
vt 0.875000 0.500000
vt 0.875000 1.000000
vt 0.843750 0.500000
vt 0.843750 1.000000
vt 0.812500 0.500000
vt 0.812500 1.000000
vt 0.781250 0.500000
vt 0.781250 1.000000
vt 0.750000 0.500000
vt 0.750000 1.000000
vt 0.718750 0.500000
vt 0.718750 1.000000
vt 0.687500 0.500000
vt 0.687500 1.000000
vt 0.656250 0.500000
vt 0.656250 1.000000
vt 0.625000 0.500000
vt 0.625000 1.000000
vt 0.593750 0.500000
vt 0.593750 1.000000
vt 0.562500 0.500000
vt 0.562500 1.000000
vt 0.531250 0.500000
vt 0.531250 1.000000
vt 0.500000 0.500000
vt 0.500000 1.000000
vt 0.468750 0.500000
vt 0.468750 1.000000
vt 0.437500 0.500000
vt 0.437500 1.000000
vt 0.406250 0.500000
vt 0.406250 1.000000
vt 0.375000 0.500000
vt 0.375000 1.000000
vt 0.343750 0.500000
vt 0.343750 1.000000
vt 0.312500 0.500000
vt 0.312500 1.000000
vt 0.281250 0.500000
vt 0.281250 1.000000
vt 0.250000 0.500000
vt 0.250000 1.000000
vt 0.218750 0.500000
vt 0.218750 1.000000
vt 0.187500 0.500000
vt 0.187500 1.000000
vt 0.156250 0.500000
vt 0.156250 1.000000
vt 0.125000 0.500000
vt 0.125000 1.000000
vt 0.093750 0.500000
vt 0.093750 1.000000
vt 0.062500 0.500000
vt 0.158156 0.028269
vt 0.471731 0.158156
vt 0.341844 0.471731
vt 0.062500 1.000000
vt 0.031250 0.500000
vt 0.031250 1.000000
vt 0.000000 0.500000
vt 0.796822 0.014612
vt 0.514612 0.203178
vt 0.703178 0.485388
vt 0.250000 0.490000
vt 0.250000 0.250000
vt 0.296822 0.485388
vt 0.383337 0.449553
vt 0.419706 0.419706
vt 0.449553 0.383337
vt 0.471731 0.341844
vt 0.485388 0.296822
vt 0.490000 0.250000
vt 0.485388 0.203178
vt 0.449553 0.116663
vt 0.419706 0.080294
vt 0.383337 0.050447
vt 0.341844 0.028269
vt 0.296822 0.014612
vt 0.250000 0.010000
vt 0.203178 0.014612
vt 0.116663 0.050447
vt 0.080294 0.080294
vt 0.050447 0.116663
vt 0.028269 0.158156
vt 0.014612 0.203178
vt 0.010000 0.250000
vt 0.014612 0.296822
vt 0.028269 0.341844
vt 0.050447 0.383337
vt 0.080294 0.419706
vt 0.116663 0.449553
vt 0.158156 0.471731
vt 0.203178 0.485388
vt 0.000000 1.000000
vt 0.750000 0.490000
vt 0.796822 0.485388
vt 0.841844 0.471731
vt 0.883337 0.449553
vt 0.919706 0.419706
vt 0.949553 0.383337
vt 0.971731 0.341844
vt 0.985388 0.296822
vt 0.990000 0.250000
vt 0.985388 0.203178
vt 0.971731 0.158156
vt 0.949553 0.116663
vt 0.919706 0.080294
vt 0.883337 0.050447
vt 0.841844 0.028269
vt 0.750000 0.010000
vt 0.703178 0.014612
vt 0.658156 0.028269
vt 0.616663 0.050447
vt 0.580294 0.080294
vt 0.550447 0.116663
vt 0.528269 0.158156
vt 0.510000 0.250000
vt 0.514612 0.296822
vt 0.528269 0.341844
vt 0.550447 0.383337
vt 0.580294 0.419706
vt 0.616663 0.449553
vt 0.658156 0.471731
s 1
usemtl Xaxis.001
f 2/1/1 3/2/2 1/3/1
f 4/4/2 5/5/3 3/2/2
f 6/6/3 7/7/4 5/5/3
f 8/8/4 9/9/5 7/7/4
f 10/10/5 11/11/6 9/9/5
f 12/12/6 13/13/7 11/11/6
f 14/14/7 15/15/8 13/13/7
f 16/16/8 17/17/9 15/15/8
f 18/18/9 19/19/10 17/17/9
f 20/20/10 21/21/11 19/19/10
f 22/22/11 23/23/12 21/21/11
f 24/24/12 25/25/13 23/23/12
f 26/26/13 27/27/14 25/25/13
f 28/28/14 29/29/15 27/27/14
f 30/30/15 31/31/16 29/29/15
f 32/32/16 33/33/17 31/31/16
f 34/34/17 35/35/18 33/33/17
f 36/36/18 37/37/19 35/35/18
f 38/38/19 39/39/20 37/37/19
f 40/40/20 41/41/21 39/39/20
f 42/42/21 43/43/22 41/41/21
f 44/44/22 45/45/23 43/43/22
f 46/46/23 47/47/24 45/45/23
f 48/48/24 49/49/25 47/47/24
f 50/50/25 51/51/26 49/49/25
f 52/52/26 53/53/27 51/51/26
f 54/54/27 55/55/28 53/53/27
f 56/56/28 57/57/29 55/55/28
f 58/58/29 59/59/30 57/57/29
f 60/60/30 61/61/31 59/59/30
f 38/62/32 22/63/32 6/64/32
f 62/65/31 63/66/33 61/61/31
f 64/67/33 1/68/1 63/66/33
f 31/69/34 47/70/34 63/71/34
f 65/72/35 97/73/32 66/74/36
f 66/74/36 97/73/32 67/64/37
f 67/64/37 97/73/32 68/75/38
f 68/75/38 97/73/32 69/76/39
f 69/76/39 97/73/32 70/77/40
f 70/77/40 97/73/32 71/78/41
f 71/78/41 97/73/32 72/79/42
f 72/79/42 97/73/32 73/80/43
f 73/80/43 97/73/32 74/81/44
f 74/81/44 97/73/32 75/63/45
f 75/63/45 97/73/32 76/82/46
f 76/82/46 97/73/32 77/83/47
f 77/83/47 97/73/32 78/84/48
f 78/84/48 97/73/32 79/85/49
f 79/85/49 97/73/32 80/86/50
f 80/86/50 97/73/32 81/87/51
f 81/87/51 97/73/32 82/88/52
f 82/88/52 97/73/32 83/62/53
f 83/62/53 97/73/32 84/89/54
f 84/89/54 97/73/32 85/90/55
f 85/90/55 97/73/32 86/91/56
f 86/91/56 97/73/32 87/92/57
f 87/92/57 97/73/32 88/93/58
f 88/93/58 97/73/32 89/94/59
f 89/94/59 97/73/32 90/95/60
f 90/95/60 97/73/32 91/96/61
f 91/96/61 97/73/32 92/97/62
f 92/97/62 97/73/32 93/98/63
f 93/98/63 97/73/32 94/99/64
f 94/99/64 97/73/32 95/100/65
f 80/69/34 88/70/34 96/71/34
f 95/100/65 97/73/32 96/101/66
f 96/101/66 97/73/32 65/72/35
f 2/1/1 4/4/2 3/2/2
f 4/4/2 6/6/3 5/5/3
f 6/6/3 8/8/4 7/7/4
f 8/8/4 10/10/5 9/9/5
f 10/10/5 12/12/6 11/11/6
f 12/12/6 14/14/7 13/13/7
f 14/14/7 16/16/8 15/15/8
f 16/16/8 18/18/9 17/17/9
f 18/18/9 20/20/10 19/19/10
f 20/20/10 22/22/11 21/21/11
f 22/22/11 24/24/12 23/23/12
f 24/24/12 26/26/13 25/25/13
f 26/26/13 28/28/14 27/27/14
f 28/28/14 30/30/15 29/29/15
f 30/30/15 32/32/16 31/31/16
f 32/32/16 34/34/17 33/33/17
f 34/34/17 36/36/18 35/35/18
f 36/36/18 38/38/19 37/37/19
f 38/38/19 40/40/20 39/39/20
f 40/40/20 42/42/21 41/41/21
f 42/42/21 44/44/22 43/43/22
f 44/44/22 46/46/23 45/45/23
f 46/46/23 48/48/24 47/47/24
f 48/48/24 50/50/25 49/49/25
f 50/50/25 52/52/26 51/51/26
f 52/52/26 54/54/27 53/53/27
f 54/54/27 56/56/28 55/55/28
f 56/56/28 58/58/29 57/57/29
f 58/58/29 60/60/30 59/59/30
f 60/60/30 62/65/31 61/61/31
f 6/64/32 4/74/32 2/72/32
f 2/72/32 64/101/32 62/100/32
f 62/100/32 60/99/32 58/98/32
f 58/98/32 56/97/32 54/96/32
f 54/96/32 52/95/32 50/94/32
f 50/94/32 48/93/32 46/92/32
f 46/92/32 44/91/32 42/90/32
f 42/90/32 40/89/32 38/62/32
f 38/62/32 36/88/32 34/87/32
f 34/87/32 32/86/32 30/85/32
f 30/85/32 28/84/32 26/83/32
f 26/83/32 24/82/32 22/63/32
f 22/63/32 20/81/32 18/80/32
f 18/80/32 16/79/32 14/78/32
f 14/78/32 12/77/32 10/76/32
f 10/76/32 8/75/32 6/64/32
f 6/64/32 2/72/32 62/100/32
f 62/100/32 58/98/32 54/96/32
f 54/96/32 50/94/32 46/92/32
f 46/92/32 42/90/32 38/62/32
f 38/62/32 34/87/32 30/85/32
f 30/85/32 26/83/32 22/63/32
f 22/63/32 18/80/32 14/78/32
f 14/78/32 10/76/32 6/64/32
f 6/64/32 62/100/32 54/96/32
f 54/96/32 46/92/32 38/62/32
f 38/62/32 30/85/32 22/63/32
f 22/63/32 14/78/32 6/64/32
f 6/64/32 54/96/32 38/62/32
f 62/65/31 64/67/33 63/66/33
f 64/67/33 2/102/1 1/68/1
f 63/71/34 1/103/34 3/104/34
f 3/104/34 5/105/34 7/106/34
f 7/106/34 9/107/34 11/108/34
f 11/108/34 13/109/34 15/110/34
f 15/110/34 17/111/34 19/112/34
f 19/112/34 21/113/34 23/114/34
f 23/114/34 25/115/34 27/116/34
f 27/116/34 29/117/34 31/69/34
f 31/69/34 33/118/34 35/119/34
f 35/119/34 37/120/34 39/121/34
f 39/121/34 41/122/34 43/123/34
f 43/123/34 45/124/34 47/70/34
f 47/70/34 49/125/34 51/126/34
f 51/126/34 53/127/34 55/128/34
f 55/128/34 57/129/34 59/130/34
f 59/130/34 61/131/34 63/71/34
f 63/71/34 3/104/34 7/106/34
f 7/106/34 11/108/34 15/110/34
f 15/110/34 19/112/34 23/114/34
f 23/114/34 27/116/34 31/69/34
f 31/69/34 35/119/34 39/121/34
f 39/121/34 43/123/34 47/70/34
f 47/70/34 51/126/34 55/128/34
f 55/128/34 59/130/34 63/71/34
f 63/71/34 7/106/34 15/110/34
f 15/110/34 23/114/34 31/69/34
f 31/69/34 39/121/34 47/70/34
f 47/70/34 55/128/34 63/71/34
f 63/71/34 15/110/34 31/69/34
f 96/71/34 65/103/34 66/104/34
f 66/104/34 67/105/34 68/106/34
f 68/106/34 69/107/34 70/108/34
f 70/108/34 71/109/67 72/110/34
f 72/110/34 73/111/34 74/112/34
f 74/112/34 75/113/67 76/114/34
f 76/114/34 77/115/34 78/116/34
f 78/116/34 79/117/34 80/69/34
f 80/69/34 81/118/34 82/119/34
f 82/119/34 83/120/34 84/121/34
f 84/121/34 85/122/34 86/123/34
f 86/123/34 87/124/68 88/70/34
f 88/70/34 89/125/34 90/126/34
f 90/126/34 91/127/68 92/128/34
f 92/128/34 93/129/34 94/130/34
f 94/130/34 95/131/34 96/71/34
f 96/71/34 66/104/34 68/106/34
f 68/106/34 70/108/34 72/110/34
f 72/110/34 74/112/34 76/114/34
f 76/114/34 78/116/34 80/69/34
f 80/69/34 82/119/34 84/121/34
f 84/121/34 86/123/34 88/70/34
f 88/70/34 90/126/34 92/128/34
f 92/128/34 94/130/34 96/71/34
f 96/71/34 68/106/34 72/110/34
f 72/110/34 76/114/34 80/69/34
f 80/69/34 84/121/34 88/70/34
f 88/70/34 92/128/34 96/71/34
f 96/71/34 72/110/34 80/69/34
o Yaxis
v 0.037500 0.000000 0.000000
v 0.037500 0.750000 -0.000000
v 0.036779 0.000000 0.007316
v 0.036779 0.750000 0.007316
v 0.034645 0.000000 0.014351
v 0.034645 0.750000 0.014351
v 0.031180 0.000000 0.020834
v 0.031180 0.750000 0.020834
v 0.026516 0.000000 0.026516
v 0.026516 0.750000 0.026516
v 0.020834 0.000000 0.031180
v 0.020834 0.750000 0.031180
v 0.014351 0.000000 0.034645
v 0.014351 0.750000 0.034645
v 0.007316 0.000000 0.036779
v 0.007316 0.750000 0.036779
v 0.000000 0.000000 0.037500
v 0.000000 0.750000 0.037500
v -0.007316 0.000000 0.036779
v -0.007316 0.750000 0.036779
v -0.014351 0.000000 0.034645
v -0.014351 0.750000 0.034645
v -0.020834 0.000000 0.031180
v -0.020834 0.750000 0.031180
v -0.026516 0.000000 0.026516
v -0.026516 0.750000 0.026516
v -0.031180 0.000000 0.020834
v -0.031180 0.750000 0.020834
v -0.034645 0.000000 0.014351
v -0.034645 0.750000 0.014351
v -0.036779 0.000000 0.007316
v -0.036779 0.750000 0.007316
v -0.037500 0.000000 0.000000
v -0.037500 0.750000 -0.000000
v -0.036779 -0.000000 -0.007316
v -0.036779 0.750000 -0.007316
v -0.034645 -0.000000 -0.014351
v -0.034645 0.750000 -0.014351
v -0.031180 -0.000000 -0.020834
v -0.031180 0.750000 -0.020834
v -0.026516 -0.000000 -0.026516
v -0.026516 0.750000 -0.026516
v -0.020834 -0.000000 -0.031180
v -0.020834 0.750000 -0.031180
v -0.014351 -0.000000 -0.034645
v -0.014351 0.750000 -0.034646
v -0.007316 -0.000000 -0.036779
v -0.007316 0.750000 -0.036779
v 0.000000 -0.000000 -0.037500
v 0.000000 0.750000 -0.037500
v 0.007316 -0.000000 -0.036779
v 0.007316 0.750000 -0.036779
v 0.014351 -0.000000 -0.034645
v 0.014351 0.750000 -0.034646
v 0.020834 -0.000000 -0.031180
v 0.020834 0.750000 -0.031180
v 0.026516 -0.000000 -0.026516
v 0.026516 0.750000 -0.026516
v 0.031180 -0.000000 -0.020834
v 0.031180 0.750000 -0.020834
v 0.034645 -0.000000 -0.014351
v 0.034645 0.750000 -0.014351
v 0.036779 -0.000000 -0.007316
v 0.036779 0.750000 -0.007316
v 0.075000 0.750000 -0.000000
v 0.073559 0.750000 0.014632
v 0.069291 0.750000 0.028701
v 0.062360 0.750000 0.041668
v 0.053033 0.750000 0.053033
v 0.041668 0.750000 0.062360
v 0.028701 0.750000 0.069291
v 0.014632 0.750000 0.073559
v 0.000000 0.750000 0.075000
v -0.014632 0.750000 0.073559
v -0.028701 0.750000 0.069291
v -0.041668 0.750000 0.062360
v -0.053033 0.750000 0.053033
v -0.062360 0.750000 0.041668
v -0.069291 0.750000 0.028701
v -0.073559 0.750000 0.014632
v -0.075000 0.750000 -0.000000
v -0.073559 0.750000 -0.014632
v -0.069291 0.750000 -0.028702
v -0.062360 0.750000 -0.041668
v -0.053033 0.750000 -0.053033
v -0.041668 0.750000 -0.062360
v -0.028701 0.750000 -0.069291
v -0.014632 0.750000 -0.073559
v 0.000000 0.750000 -0.075000
v 0.014632 0.750000 -0.073559
v 0.028701 0.750000 -0.069291
v 0.041668 0.750000 -0.062360
v 0.053033 0.750000 -0.053033
v 0.062360 0.750000 -0.041668
v 0.069291 0.750000 -0.028702
v 0.073559 0.750000 -0.014632
v 0.000000 1.050000 -0.000000
vn 1.0000 -0.0000 -0.0000
vn 0.9808 -0.0000 0.1951
vn 0.9239 -0.0000 0.3827
vn 0.8315 -0.0000 0.5556
vn 0.7071 -0.0000 0.7071
vn 0.5556 -0.0000 0.8315
vn 0.3827 -0.0000 0.9239
vn 0.1951 -0.0000 0.9808
vn -0.0000 -0.0000 1.0000
vn -0.1951 -0.0000 0.9808
vn -0.3827 -0.0000 0.9239
vn -0.5556 -0.0000 0.8315
vn -0.7071 -0.0000 0.7071
vn -0.8315 -0.0000 0.5556
vn -0.9239 -0.0000 0.3827
vn -0.9808 -0.0000 0.1951
vn -1.0000 -0.0000 -0.0000
vn -0.9808 -0.0000 -0.1951
vn -0.9239 -0.0000 -0.3827
vn -0.8315 -0.0000 -0.5556
vn -0.7071 -0.0000 -0.7071
vn -0.5556 -0.0000 -0.8315
vn -0.3827 -0.0000 -0.9239
vn -0.1951 -0.0000 -0.9808
vn -0.0000 -0.0000 -1.0000
vn 0.1951 -0.0000 -0.9808
vn 0.3827 -0.0000 -0.9239
vn 0.5556 -0.0000 -0.8315
vn 0.7071 -0.0000 -0.7071
vn 0.8315 -0.0000 -0.5556
vn 0.9239 -0.0000 -0.3827
vn -0.0000 1.0000 -0.0000
vn 0.9808 -0.0000 -0.1951
vn -0.0000 -1.0000 -0.0000
vn 0.9701 0.2425 -0.0000
vn 0.9515 0.2425 0.1893
vn 0.8963 0.2425 0.3712
vn 0.8066 0.2425 0.5390
vn 0.6860 0.2425 0.6860
vn 0.5390 0.2425 0.8066
vn 0.3712 0.2425 0.8963
vn 0.1893 0.2425 0.9515
vn -0.0000 0.2425 0.9701
vn -0.1893 0.2425 0.9515
vn -0.3712 0.2425 0.8963
vn -0.5390 0.2425 0.8066
vn -0.6860 0.2425 0.6860
vn -0.8066 0.2425 0.5390
vn -0.8963 0.2425 0.3712
vn -0.9515 0.2425 0.1893
vn -0.9701 0.2425 -0.0000
vn -0.9515 0.2425 -0.1893
vn -0.8963 0.2425 -0.3713
vn -0.8066 0.2425 -0.5390
vn -0.6860 0.2425 -0.6860
vn -0.5390 0.2425 -0.8066
vn -0.3712 0.2425 -0.8963
vn -0.1893 0.2425 -0.9515
vn -0.0000 0.2425 -0.9701
vn 0.1893 0.2425 -0.9515
vn 0.3712 0.2425 -0.8963
vn 0.5390 0.2425 -0.8066
vn 0.6860 0.2425 -0.6860
vn 0.8066 0.2425 -0.5390
vn 0.8963 0.2425 -0.3713
vn 0.9515 0.2425 -0.1893
vn -0.0000 -1.0000 -0.0001
vn -0.0000 -1.0000 0.0001
vt 1.000000 1.000000
vt 0.968750 0.500000
vt 1.000000 0.500000
vt 0.968750 1.000000
vt 0.937500 0.500000
vt 0.937500 1.000000
vt 0.906250 0.500000
vt 0.906250 1.000000
vt 0.875000 0.500000
vt 0.875000 1.000000
vt 0.843750 0.500000
vt 0.843750 1.000000
vt 0.812500 0.500000
vt 0.812500 1.000000
vt 0.781250 0.500000
vt 0.781250 1.000000
vt 0.750000 0.500000
vt 0.750000 1.000000
vt 0.718750 0.500000
vt 0.718750 1.000000
vt 0.687500 0.500000
vt 0.687500 1.000000
vt 0.656250 0.500000
vt 0.656250 1.000000
vt 0.625000 0.500000
vt 0.625000 1.000000
vt 0.593750 0.500000
vt 0.593750 1.000000
vt 0.562500 0.500000
vt 0.562500 1.000000
vt 0.531250 0.500000
vt 0.531250 1.000000
vt 0.500000 0.500000
vt 0.500000 1.000000
vt 0.468750 0.500000
vt 0.468750 1.000000
vt 0.437500 0.500000
vt 0.437500 1.000000
vt 0.406250 0.500000
vt 0.406250 1.000000
vt 0.375000 0.500000
vt 0.375000 1.000000
vt 0.343750 0.500000
vt 0.343750 1.000000
vt 0.312500 0.500000
vt 0.312500 1.000000
vt 0.281250 0.500000
vt 0.281250 1.000000
vt 0.250000 0.500000
vt 0.250000 1.000000
vt 0.218750 0.500000
vt 0.218750 1.000000
vt 0.187500 0.500000
vt 0.187500 1.000000
vt 0.156250 0.500000
vt 0.156250 1.000000
vt 0.125000 0.500000
vt 0.125000 1.000000
vt 0.093750 0.500000
vt 0.093750 1.000000
vt 0.062500 0.500000
vt 0.158156 0.028269
vt 0.471731 0.158156
vt 0.341844 0.471731
vt 0.062500 1.000000
vt 0.031250 0.500000
vt 0.031250 1.000000
vt 0.000000 0.500000
vt 0.796822 0.014612
vt 0.514612 0.203178
vt 0.703178 0.485388
vt 0.250000 0.490000
vt 0.250000 0.250000
vt 0.296822 0.485388
vt 0.383337 0.449553
vt 0.419706 0.419706
vt 0.449553 0.383337
vt 0.471731 0.341844
vt 0.485388 0.296822
vt 0.490000 0.250000
vt 0.485388 0.203178
vt 0.449553 0.116663
vt 0.419706 0.080294
vt 0.383337 0.050447
vt 0.341844 0.028269
vt 0.296822 0.014612
vt 0.250000 0.010000
vt 0.203178 0.014612
vt 0.116663 0.050447
vt 0.080294 0.080294
vt 0.050447 0.116663
vt 0.028269 0.158156
vt 0.014612 0.203178
vt 0.010000 0.250000
vt 0.014612 0.296822
vt 0.028269 0.341844
vt 0.050447 0.383337
vt 0.080294 0.419706
vt 0.116663 0.449553
vt 0.158156 0.471731
vt 0.203178 0.485388
vt 0.000000 1.000000
vt 0.750000 0.490000
vt 0.796822 0.485388
vt 0.841844 0.471731
vt 0.883337 0.449553
vt 0.919706 0.419706
vt 0.949553 0.383337
vt 0.971731 0.341844
vt 0.985388 0.296822
vt 0.990000 0.250000
vt 0.985388 0.203178
vt 0.971731 0.158156
vt 0.949553 0.116663
vt 0.919706 0.080294
vt 0.883337 0.050447
vt 0.841844 0.028269
vt 0.750000 0.010000
vt 0.703178 0.014612
vt 0.658156 0.028269
vt 0.616663 0.050447
vt 0.580294 0.080294
vt 0.550447 0.116663
vt 0.528269 0.158156
vt 0.510000 0.250000
vt 0.514612 0.296822
vt 0.528269 0.341844
vt 0.550447 0.383337
vt 0.580294 0.419706
vt 0.616663 0.449553
vt 0.658156 0.471731
s 1
usemtl Yaxis.001
f 99/132/69 100/133/70 98/134/69
f 101/135/70 102/136/71 100/133/70
f 103/137/71 104/138/72 102/136/71
f 105/139/72 106/140/73 104/138/72
f 107/141/73 108/142/74 106/140/73
f 109/143/74 110/144/75 108/142/74
f 111/145/75 112/146/76 110/144/75
f 113/147/76 114/148/77 112/146/76
f 115/149/77 116/150/78 114/148/77
f 117/151/78 118/152/79 116/150/78
f 119/153/79 120/154/80 118/152/79
f 121/155/80 122/156/81 120/154/80
f 123/157/81 124/158/82 122/156/81
f 125/159/82 126/160/83 124/158/82
f 127/161/83 128/162/84 126/160/83
f 129/163/84 130/164/85 128/162/84
f 131/165/85 132/166/86 130/164/85
f 133/167/86 134/168/87 132/166/86
f 135/169/87 136/170/88 134/168/87
f 137/171/88 138/172/89 136/170/88
f 139/173/89 140/174/90 138/172/89
f 141/175/90 142/176/91 140/174/90
f 143/177/91 144/178/92 142/176/91
f 145/179/92 146/180/93 144/178/92
f 147/181/93 148/182/94 146/180/93
f 149/183/94 150/184/95 148/182/94
f 151/185/95 152/186/96 150/184/95
f 153/187/96 154/188/97 152/186/96
f 155/189/97 156/190/98 154/188/97
f 157/191/98 158/192/99 156/190/98
f 135/193/100 119/194/100 103/195/100
f 159/196/99 160/197/101 158/192/99
f 161/198/101 98/199/69 160/197/101
f 128/200/102 144/201/102 160/202/102
f 162/203/103 194/204/100 163/205/104
f 163/205/104 194/204/100 164/195/105
f 164/195/105 194/204/100 165/206/106
f 165/206/106 194/204/100 166/207/107
f 166/207/107 194/204/100 167/208/108
f 167/208/108 194/204/100 168/209/109
f 168/209/109 194/204/100 169/210/110
f 169/210/110 194/204/100 170/211/111
f 170/211/111 194/204/100 171/212/112
f 171/212/112 194/204/100 172/194/113
f 172/194/113 194/204/100 173/213/114
f 173/213/114 194/204/100 174/214/115
f 174/214/115 194/204/100 175/215/116
f 175/215/116 194/204/100 176/216/117
f 176/216/117 194/204/100 177/217/118
f 177/217/118 194/204/100 178/218/119
f 178/218/119 194/204/100 179/219/120
f 179/219/120 194/204/100 180/193/121
f 180/193/121 194/204/100 181/220/122
f 181/220/122 194/204/100 182/221/123
f 182/221/123 194/204/100 183/222/124
f 183/222/124 194/204/100 184/223/125
f 184/223/125 194/204/100 185/224/126
f 185/224/126 194/204/100 186/225/127
f 186/225/127 194/204/100 187/226/128
f 187/226/128 194/204/100 188/227/129
f 188/227/129 194/204/100 189/228/130
f 189/228/130 194/204/100 190/229/131
f 190/229/131 194/204/100 191/230/132
f 191/230/132 194/204/100 192/231/133
f 177/200/102 185/201/102 193/202/102
f 192/231/133 194/204/100 193/232/134
f 193/232/134 194/204/100 162/203/103
f 99/132/69 101/135/70 100/133/70
f 101/135/70 103/137/71 102/136/71
f 103/137/71 105/139/72 104/138/72
f 105/139/72 107/141/73 106/140/73
f 107/141/73 109/143/74 108/142/74
f 109/143/74 111/145/75 110/144/75
f 111/145/75 113/147/76 112/146/76
f 113/147/76 115/149/77 114/148/77
f 115/149/77 117/151/78 116/150/78
f 117/151/78 119/153/79 118/152/79
f 119/153/79 121/155/80 120/154/80
f 121/155/80 123/157/81 122/156/81
f 123/157/81 125/159/82 124/158/82
f 125/159/82 127/161/83 126/160/83
f 127/161/83 129/163/84 128/162/84
f 129/163/84 131/165/85 130/164/85
f 131/165/85 133/167/86 132/166/86
f 133/167/86 135/169/87 134/168/87
f 135/169/87 137/171/88 136/170/88
f 137/171/88 139/173/89 138/172/89
f 139/173/89 141/175/90 140/174/90
f 141/175/90 143/177/91 142/176/91
f 143/177/91 145/179/92 144/178/92
f 145/179/92 147/181/93 146/180/93
f 147/181/93 149/183/94 148/182/94
f 149/183/94 151/185/95 150/184/95
f 151/185/95 153/187/96 152/186/96
f 153/187/96 155/189/97 154/188/97
f 155/189/97 157/191/98 156/190/98
f 157/191/98 159/196/99 158/192/99
f 103/195/100 101/205/100 99/203/100
f 99/203/100 161/232/100 159/231/100
f 159/231/100 157/230/100 155/229/100
f 155/229/100 153/228/100 151/227/100
f 151/227/100 149/226/100 147/225/100
f 147/225/100 145/224/100 143/223/100
f 143/223/100 141/222/100 139/221/100
f 139/221/100 137/220/100 135/193/100
f 135/193/100 133/219/100 131/218/100
f 131/218/100 129/217/100 127/216/100
f 127/216/100 125/215/100 123/214/100
f 123/214/100 121/213/100 119/194/100
f 119/194/100 117/212/100 115/211/100
f 115/211/100 113/210/100 111/209/100
f 111/209/100 109/208/100 107/207/100
f 107/207/100 105/206/100 103/195/100
f 103/195/100 99/203/100 159/231/100
f 159/231/100 155/229/100 151/227/100
f 151/227/100 147/225/100 143/223/100
f 143/223/100 139/221/100 135/193/100
f 135/193/100 131/218/100 127/216/100
f 127/216/100 123/214/100 119/194/100
f 119/194/100 115/211/100 111/209/100
f 111/209/100 107/207/100 103/195/100
f 103/195/100 159/231/100 151/227/100
f 151/227/100 143/223/100 135/193/100
f 135/193/100 127/216/100 119/194/100
f 119/194/100 111/209/100 103/195/100
f 103/195/100 151/227/100 135/193/100
f 159/196/99 161/198/101 160/197/101
f 161/198/101 99/233/69 98/199/69
f 160/202/102 98/234/102 100/235/102
f 100/235/102 102/236/102 104/237/102
f 104/237/102 106/238/102 108/239/102
f 108/239/102 110/240/102 112/241/102
f 112/241/102 114/242/102 116/243/102
f 116/243/102 118/244/102 120/245/102
f 120/245/102 122/246/102 124/247/102
f 124/247/102 126/248/102 128/200/102
f 128/200/102 130/249/102 132/250/102
f 132/250/102 134/251/102 136/252/102
f 136/252/102 138/253/102 140/254/102
f 140/254/102 142/255/102 144/201/102
f 144/201/102 146/256/102 148/257/102
f 148/257/102 150/258/102 152/259/102
f 152/259/102 154/260/102 156/261/102
f 156/261/102 158/262/102 160/202/102
f 160/202/102 100/235/102 104/237/102
f 104/237/102 108/239/102 112/241/102
f 112/241/102 116/243/102 120/245/102
f 120/245/102 124/247/102 128/200/102
f 128/200/102 132/250/102 136/252/102
f 136/252/102 140/254/102 144/201/102
f 144/201/102 148/257/102 152/259/102
f 152/259/102 156/261/102 160/202/102
f 160/202/102 104/237/102 112/241/102
f 112/241/102 120/245/102 128/200/102
f 128/200/102 136/252/102 144/201/102
f 144/201/102 152/259/102 160/202/102
f 160/202/102 112/241/102 128/200/102
f 193/202/102 162/234/102 163/235/102
f 163/235/102 164/236/102 165/237/102
f 165/237/102 166/238/102 167/239/102
f 167/239/102 168/240/135 169/241/102
f 169/241/102 170/242/102 171/243/102
f 171/243/102 172/244/135 173/245/102
f 173/245/102 174/246/102 175/247/102
f 175/247/102 176/248/102 177/200/102
f 177/200/102 178/249/102 179/250/102
f 179/250/102 180/251/102 181/252/102
f 181/252/102 182/253/102 183/254/102
f 183/254/102 184/255/136 185/201/102
f 185/201/102 186/256/102 187/257/102
f 187/257/102 188/258/136 189/259/102
f 189/259/102 190/260/102 191/261/102
f 191/261/102 192/262/102 193/202/102
f 193/202/102 163/235/102 165/237/102
f 165/237/102 167/239/102 169/241/102
f 169/241/102 171/243/102 173/245/102
f 173/245/102 175/247/102 177/200/102
f 177/200/102 179/250/102 181/252/102
f 181/252/102 183/254/102 185/201/102
f 185/201/102 187/257/102 189/259/102
f 189/259/102 191/261/102 193/202/102
f 193/202/102 165/237/102 169/241/102
f 169/241/102 173/245/102 177/200/102
f 177/200/102 181/252/102 185/201/102
f 185/201/102 189/259/102 193/202/102
f 193/202/102 169/241/102 177/200/102
o Zaxis
v 0.037500 0.000000 0.000000
v 0.037500 0.000000 0.750000
v 0.036779 -0.007316 0.000000
v 0.036779 -0.007316 0.750000
v 0.034645 -0.014351 0.000000
v 0.034645 -0.014351 0.750000
v 0.031180 -0.020834 0.000000
v 0.031180 -0.020834 0.750000
v 0.026516 -0.026516 0.000000
v 0.026516 -0.026516 0.750000
v 0.020834 -0.031180 0.000000
v 0.020834 -0.031180 0.750000
v 0.014351 -0.034645 0.000000
v 0.014351 -0.034645 0.750000
v 0.007316 -0.036779 0.000000
v 0.007316 -0.036779 0.750000
v 0.000000 -0.037500 0.000000
v 0.000000 -0.037500 0.750000
v -0.007316 -0.036779 0.000000
v -0.007316 -0.036779 0.750000
v -0.014351 -0.034645 0.000000
v -0.014351 -0.034645 0.750000
v -0.020834 -0.031180 0.000000
v -0.020834 -0.031180 0.750000
v -0.026516 -0.026516 0.000000
v -0.026516 -0.026516 0.750000
v -0.031180 -0.020834 0.000000
v -0.031180 -0.020834 0.750000
v -0.034645 -0.014351 0.000000
v -0.034645 -0.014351 0.750000
v -0.036779 -0.007316 0.000000
v -0.036779 -0.007316 0.750000
v -0.037500 0.000000 0.000000
v -0.037500 0.000000 0.750000
v -0.036779 0.007316 -0.000000
v -0.036779 0.007316 0.750000
v -0.034645 0.014351 -0.000000
v -0.034645 0.014351 0.750000
v -0.031180 0.020834 -0.000000
v -0.031180 0.020834 0.750000
v -0.026516 0.026516 -0.000000
v -0.026516 0.026516 0.750000
v -0.020834 0.031180 -0.000000
v -0.020834 0.031180 0.750000
v -0.014351 0.034645 -0.000000
v -0.014351 0.034646 0.750000
v -0.007316 0.036779 -0.000000
v -0.007316 0.036779 0.750000
v 0.000000 0.037500 -0.000000
v 0.000000 0.037500 0.750000
v 0.007316 0.036779 -0.000000
v 0.007316 0.036779 0.750000
v 0.014351 0.034645 -0.000000
v 0.014351 0.034646 0.750000
v 0.020834 0.031180 -0.000000
v 0.020834 0.031180 0.750000
v 0.026516 0.026516 -0.000000
v 0.026516 0.026516 0.750000
v 0.031180 0.020834 -0.000000
v 0.031180 0.020834 0.750000
v 0.034645 0.014351 -0.000000
v 0.034645 0.014351 0.750000
v 0.036779 0.007316 -0.000000
v 0.036779 0.007316 0.750000
v 0.075000 0.000000 0.750000
v 0.073559 -0.014632 0.750000
v 0.069291 -0.028701 0.750000
v 0.062360 -0.041668 0.750000
v 0.053033 -0.053033 0.750000
v 0.041668 -0.062360 0.750000
v 0.028701 -0.069291 0.750000
v 0.014632 -0.073559 0.750000
v 0.000000 -0.075000 0.750000
v -0.014632 -0.073559 0.750000
v -0.028701 -0.069291 0.750000
v -0.041668 -0.062360 0.750000
v -0.053033 -0.053033 0.750000
v -0.062360 -0.041668 0.750000
v -0.069291 -0.028701 0.750000
v -0.073559 -0.014632 0.750000
v -0.075000 0.000000 0.750000
v -0.073559 0.014632 0.750000
v -0.069291 0.028702 0.750000
v -0.062360 0.041668 0.750000
v -0.053033 0.053033 0.750000
v -0.041668 0.062360 0.750000
v -0.028701 0.069291 0.750000
v -0.014632 0.073559 0.750000
v 0.000000 0.075000 0.750000
v 0.014632 0.073559 0.750000
v 0.028701 0.069291 0.750000
v 0.041668 0.062360 0.750000
v 0.053033 0.053033 0.750000
v 0.062360 0.041668 0.750000
v 0.069291 0.028702 0.750000
v 0.073559 0.014632 0.750000
v 0.000000 0.000000 1.050000
vn 1.0000 -0.0000 -0.0000
vn 0.9808 -0.1951 -0.0000
vn 0.9239 -0.3827 -0.0000
vn 0.8315 -0.5556 -0.0000
vn 0.7071 -0.7071 -0.0000
vn 0.5556 -0.8315 -0.0000
vn 0.3827 -0.9239 -0.0000
vn 0.1951 -0.9808 -0.0000
vn -0.0000 -1.0000 -0.0000
vn -0.1951 -0.9808 -0.0000
vn -0.3827 -0.9239 -0.0000
vn -0.5556 -0.8315 -0.0000
vn -0.7071 -0.7071 -0.0000
vn -0.8315 -0.5556 -0.0000
vn -0.9239 -0.3827 -0.0000
vn -0.9808 -0.1951 -0.0000
vn -1.0000 -0.0000 -0.0000
vn -0.9808 0.1951 -0.0000
vn -0.9239 0.3827 -0.0000
vn -0.8315 0.5556 -0.0000
vn -0.7071 0.7071 -0.0000
vn -0.5556 0.8315 -0.0000
vn -0.3827 0.9239 -0.0000
vn -0.1951 0.9808 -0.0000
vn -0.0000 1.0000 -0.0000
vn 0.1951 0.9808 -0.0000
vn 0.3827 0.9239 -0.0000
vn 0.5556 0.8315 -0.0000
vn 0.7071 0.7071 -0.0000
vn 0.8315 0.5556 -0.0000
vn 0.9239 0.3827 -0.0000
vn -0.0000 -0.0000 1.0000
vn 0.9808 0.1951 -0.0000
vn -0.0000 -0.0000 -1.0000
vn 0.9701 -0.0000 0.2425
vn 0.9515 -0.1893 0.2425
vn 0.8963 -0.3712 0.2425
vn 0.8066 -0.5390 0.2425
vn 0.6860 -0.6860 0.2425
vn 0.5390 -0.8066 0.2425
vn 0.3712 -0.8963 0.2425
vn 0.1893 -0.9515 0.2425
vn -0.0000 -0.9701 0.2425
vn -0.1893 -0.9515 0.2425
vn -0.3712 -0.8963 0.2425
vn -0.5390 -0.8066 0.2425
vn -0.6860 -0.6860 0.2425
vn -0.8066 -0.5390 0.2425
vn -0.8963 -0.3712 0.2425
vn -0.9515 -0.1893 0.2425
vn -0.9701 -0.0000 0.2425
vn -0.9515 0.1893 0.2425
vn -0.8963 0.3713 0.2425
vn -0.8066 0.5390 0.2425
vn -0.6860 0.6860 0.2425
vn -0.5390 0.8066 0.2425
vn -0.3712 0.8963 0.2425
vn -0.1893 0.9515 0.2425
vn -0.0000 0.9701 0.2425
vn 0.1893 0.9515 0.2425
vn 0.3712 0.8963 0.2425
vn 0.5390 0.8066 0.2425
vn 0.6860 0.6860 0.2425
vn 0.8066 0.5390 0.2425
vn 0.8963 0.3713 0.2425
vn 0.9515 0.1893 0.2425
vn -0.0001 -0.0000 -1.0000
vn 0.0001 -0.0000 -1.0000
vt 1.000000 1.000000
vt 0.968750 0.500000
vt 1.000000 0.500000
vt 0.968750 1.000000
vt 0.937500 0.500000
vt 0.937500 1.000000
vt 0.906250 0.500000
vt 0.906250 1.000000
vt 0.875000 0.500000
vt 0.875000 1.000000
vt 0.843750 0.500000
vt 0.843750 1.000000
vt 0.812500 0.500000
vt 0.812500 1.000000
vt 0.781250 0.500000
vt 0.781250 1.000000
vt 0.750000 0.500000
vt 0.750000 1.000000
vt 0.718750 0.500000
vt 0.718750 1.000000
vt 0.687500 0.500000
vt 0.687500 1.000000
vt 0.656250 0.500000
vt 0.656250 1.000000
vt 0.625000 0.500000
vt 0.625000 1.000000
vt 0.593750 0.500000
vt 0.593750 1.000000
vt 0.562500 0.500000
vt 0.562500 1.000000
vt 0.531250 0.500000
vt 0.531250 1.000000
vt 0.500000 0.500000
vt 0.500000 1.000000
vt 0.468750 0.500000
vt 0.468750 1.000000
vt 0.437500 0.500000
vt 0.437500 1.000000
vt 0.406250 0.500000
vt 0.406250 1.000000
vt 0.375000 0.500000
vt 0.375000 1.000000
vt 0.343750 0.500000
vt 0.343750 1.000000
vt 0.312500 0.500000
vt 0.312500 1.000000
vt 0.281250 0.500000
vt 0.281250 1.000000
vt 0.250000 0.500000
vt 0.250000 1.000000
vt 0.218750 0.500000
vt 0.218750 1.000000
vt 0.187500 0.500000
vt 0.187500 1.000000
vt 0.156250 0.500000
vt 0.156250 1.000000
vt 0.125000 0.500000
vt 0.125000 1.000000
vt 0.093750 0.500000
vt 0.093750 1.000000
vt 0.062500 0.500000
vt 0.158156 0.028269
vt 0.471731 0.158156
vt 0.341844 0.471731
vt 0.062500 1.000000
vt 0.031250 0.500000
vt 0.031250 1.000000
vt 0.000000 0.500000
vt 0.796822 0.014612
vt 0.514612 0.203178
vt 0.703178 0.485388
vt 0.250000 0.490000
vt 0.250000 0.250000
vt 0.296822 0.485388
vt 0.383337 0.449553
vt 0.419706 0.419706
vt 0.449553 0.383337
vt 0.471731 0.341844
vt 0.485388 0.296822
vt 0.490000 0.250000
vt 0.485388 0.203178
vt 0.449553 0.116663
vt 0.419706 0.080294
vt 0.383337 0.050447
vt 0.341844 0.028269
vt 0.296822 0.014612
vt 0.250000 0.010000
vt 0.203178 0.014612
vt 0.116663 0.050447
vt 0.080294 0.080294
vt 0.050447 0.116663
vt 0.028269 0.158156
vt 0.014612 0.203178
vt 0.010000 0.250000
vt 0.014612 0.296822
vt 0.028269 0.341844
vt 0.050447 0.383337
vt 0.080294 0.419706
vt 0.116663 0.449553
vt 0.158156 0.471731
vt 0.203178 0.485388
vt 0.000000 1.000000
vt 0.750000 0.490000
vt 0.796822 0.485388
vt 0.841844 0.471731
vt 0.883337 0.449553
vt 0.919706 0.419706
vt 0.949553 0.383337
vt 0.971731 0.341844
vt 0.985388 0.296822
vt 0.990000 0.250000
vt 0.985388 0.203178
vt 0.971731 0.158156
vt 0.949553 0.116663
vt 0.919706 0.080294
vt 0.883337 0.050447
vt 0.841844 0.028269
vt 0.750000 0.010000
vt 0.703178 0.014612
vt 0.658156 0.028269
vt 0.616663 0.050447
vt 0.580294 0.080294
vt 0.550447 0.116663
vt 0.528269 0.158156
vt 0.510000 0.250000
vt 0.514612 0.296822
vt 0.528269 0.341844
vt 0.550447 0.383337
vt 0.580294 0.419706
vt 0.616663 0.449553
vt 0.658156 0.471731
s 1
usemtl Zaxis.001
f 196/263/137 197/264/138 195/265/137
f 198/266/138 199/267/139 197/264/138
f 200/268/139 201/269/140 199/267/139
f 202/270/140 203/271/141 201/269/140
f 204/272/141 205/273/142 203/271/141
f 206/274/142 207/275/143 205/273/142
f 208/276/143 209/277/144 207/275/143
f 210/278/144 211/279/145 209/277/144
f 212/280/145 213/281/146 211/279/145
f 214/282/146 215/283/147 213/281/146
f 216/284/147 217/285/148 215/283/147
f 218/286/148 219/287/149 217/285/148
f 220/288/149 221/289/150 219/287/149
f 222/290/150 223/291/151 221/289/150
f 224/292/151 225/293/152 223/291/151
f 226/294/152 227/295/153 225/293/152
f 228/296/153 229/297/154 227/295/153
f 230/298/154 231/299/155 229/297/154
f 232/300/155 233/301/156 231/299/155
f 234/302/156 235/303/157 233/301/156
f 236/304/157 237/305/158 235/303/157
f 238/306/158 239/307/159 237/305/158
f 240/308/159 241/309/160 239/307/159
f 242/310/160 243/311/161 241/309/160
f 244/312/161 245/313/162 243/311/161
f 246/314/162 247/315/163 245/313/162
f 248/316/163 249/317/164 247/315/163
f 250/318/164 251/319/165 249/317/164
f 252/320/165 253/321/166 251/319/165
f 254/322/166 255/323/167 253/321/166
f 232/324/168 216/325/168 200/326/168
f 256/327/167 257/328/169 255/323/167
f 258/329/169 195/330/137 257/328/169
f 225/331/170 241/332/170 257/333/170
f 259/334/171 291/335/168 260/336/172
f 260/336/172 291/335/168 261/326/173
f 261/326/173 291/335/168 262/337/174
f 262/337/174 291/335/168 263/338/175
f 263/338/175 291/335/168 264/339/176
f 264/339/176 291/335/168 265/340/177
f 265/340/177 291/335/168 266/341/178
f 266/341/178 291/335/168 267/342/179
f 267/342/179 291/335/168 268/343/180
f 268/343/180 291/335/168 269/325/181
f 269/325/181 291/335/168 270/344/182
f 270/344/182 291/335/168 271/345/183
f 271/345/183 291/335/168 272/346/184
f 272/346/184 291/335/168 273/347/185
f 273/347/185 291/335/168 274/348/186
f 274/348/186 291/335/168 275/349/187
f 275/349/187 291/335/168 276/350/188
f 276/350/188 291/335/168 277/324/189
f 277/324/189 291/335/168 278/351/190
f 278/351/190 291/335/168 279/352/191
f 279/352/191 291/335/168 280/353/192
f 280/353/192 291/335/168 281/354/193
f 281/354/193 291/335/168 282/355/194
f 282/355/194 291/335/168 283/356/195
f 283/356/195 291/335/168 284/357/196
f 284/357/196 291/335/168 285/358/197
f 285/358/197 291/335/168 286/359/198
f 286/359/198 291/335/168 287/360/199
f 287/360/199 291/335/168 288/361/200
f 288/361/200 291/335/168 289/362/201
f 274/331/170 282/332/170 290/333/170
f 289/362/201 291/335/168 290/363/202
f 290/363/202 291/335/168 259/334/171
f 196/263/137 198/266/138 197/264/138
f 198/266/138 200/268/139 199/267/139
f 200/268/139 202/270/140 201/269/140
f 202/270/140 204/272/141 203/271/141
f 204/272/141 206/274/142 205/273/142
f 206/274/142 208/276/143 207/275/143
f 208/276/143 210/278/144 209/277/144
f 210/278/144 212/280/145 211/279/145
f 212/280/145 214/282/146 213/281/146
f 214/282/146 216/284/147 215/283/147
f 216/284/147 218/286/148 217/285/148
f 218/286/148 220/288/149 219/287/149
f 220/288/149 222/290/150 221/289/150
f 222/290/150 224/292/151 223/291/151
f 224/292/151 226/294/152 225/293/152
f 226/294/152 228/296/153 227/295/153
f 228/296/153 230/298/154 229/297/154
f 230/298/154 232/300/155 231/299/155
f 232/300/155 234/302/156 233/301/156
f 234/302/156 236/304/157 235/303/157
f 236/304/157 238/306/158 237/305/158
f 238/306/158 240/308/159 239/307/159
f 240/308/159 242/310/160 241/309/160
f 242/310/160 244/312/161 243/311/161
f 244/312/161 246/314/162 245/313/162
f 246/314/162 248/316/163 247/315/163
f 248/316/163 250/318/164 249/317/164
f 250/318/164 252/320/165 251/319/165
f 252/320/165 254/322/166 253/321/166
f 254/322/166 256/327/167 255/323/167
f 200/326/168 198/336/168 196/334/168
f 196/334/168 258/363/168 256/362/168
f 256/362/168 254/361/168 252/360/168
f 252/360/168 250/359/168 248/358/168
f 248/358/168 246/357/168 244/356/168
f 244/356/168 242/355/168 240/354/168
f 240/354/168 238/353/168 236/352/168
f 236/352/168 234/351/168 232/324/168
f 232/324/168 230/350/168 228/349/168
f 228/349/168 226/348/168 224/347/168
f 224/347/168 222/346/168 220/345/168
f 220/345/168 218/344/168 216/325/168
f 216/325/168 214/343/168 212/342/168
f 212/342/168 210/341/168 208/340/168
f 208/340/168 206/339/168 204/338/168
f 204/338/168 202/337/168 200/326/168
f 200/326/168 196/334/168 256/362/168
f 256/362/168 252/360/168 248/358/168
f 248/358/168 244/356/168 240/354/168
f 240/354/168 236/352/168 232/324/168
f 232/324/168 228/349/168 224/347/168
f 224/347/168 220/345/168 216/325/168
f 216/325/168 212/342/168 208/340/168
f 208/340/168 204/338/168 200/326/168
f 200/326/168 256/362/168 248/358/168
f 248/358/168 240/354/168 232/324/168
f 232/324/168 224/347/168 216/325/168
f 216/325/168 208/340/168 200/326/168
f 200/326/168 248/358/168 232/324/168
f 256/327/167 258/329/169 257/328/169
f 258/329/169 196/364/137 195/330/137
f 257/333/170 195/365/170 197/366/170
f 197/366/170 199/367/170 201/368/170
f 201/368/170 203/369/170 205/370/170
f 205/370/170 207/371/170 209/372/170
f 209/372/170 211/373/170 213/374/170
f 213/374/170 215/375/170 217/376/170
f 217/376/170 219/377/170 221/378/170
f 221/378/170 223/379/170 225/331/170
f 225/331/170 227/380/170 229/381/170
f 229/381/170 231/382/170 233/383/170
f 233/383/170 235/384/170 237/385/170
f 237/385/170 239/386/170 241/332/170
f 241/332/170 243/387/170 245/388/170
f 245/388/170 247/389/170 249/390/170
f 249/390/170 251/391/170 253/392/170
f 253/392/170 255/393/170 257/333/170
f 257/333/170 197/366/170 201/368/170
f 201/368/170 205/370/170 209/372/170
f 209/372/170 213/374/170 217/376/170
f 217/376/170 221/378/170 225/331/170
f 225/331/170 229/381/170 233/383/170
f 233/383/170 237/385/170 241/332/170
f 241/332/170 245/388/170 249/390/170
f 249/390/170 253/392/170 257/333/170
f 257/333/170 201/368/170 209/372/170
f 209/372/170 217/376/170 225/331/170
f 225/331/170 233/383/170 241/332/170
f 241/332/170 249/390/170 257/333/170
f 257/333/170 209/372/170 225/331/170
f 290/333/170 259/365/170 260/366/170
f 260/366/170 261/367/203 262/368/170
f 262/368/170 263/369/170 264/370/170
f 264/370/170 265/371/170 266/372/170
f 266/372/170 267/373/170 268/374/170
f 268/374/170 269/375/170 270/376/170
f 270/376/170 271/377/170 272/378/170
f 272/378/170 273/379/204 274/331/170
f 274/331/170 275/380/170 276/381/170
f 276/381/170 277/382/204 278/383/170
f 278/383/170 279/384/170 280/385/170
f 280/385/170 281/386/170 282/332/170
f 282/332/170 283/387/170 284/388/170
f 284/388/170 285/389/170 286/390/170
f 286/390/170 287/391/170 288/392/170
f 288/392/170 289/393/203 290/333/170
f 290/333/170 260/366/170 262/368/170
f 262/368/170 264/370/170 266/372/170
f 266/372/170 268/374/170 270/376/170
f 270/376/170 272/378/170 274/331/170
f 274/331/170 276/381/170 278/383/170
f 278/383/170 280/385/170 282/332/170
f 282/332/170 284/388/170 286/390/170
f 286/390/170 288/392/170 290/333/170
f 290/333/170 262/368/170 266/372/170
f 266/372/170 270/376/170 274/331/170
f 274/331/170 278/383/170 282/332/170
f 282/332/170 286/390/170 290/333/170
f 290/333/170 266/372/170 274/331/170
