# Blender 3.3.0
# www.blender.org
mtllib rubix1x1.mtl
o Rubix
v -0.984375 -0.984375 0.984375
v -0.984375 0.984375 0.984375
v -0.984375 -0.984375 -0.984375
v -0.984375 0.984375 -0.984375
v 0.984375 -0.984375 0.984375
v 0.984375 0.984375 0.984375
v 0.984375 -0.984375 -0.984375
v 0.984375 0.984375 -0.984375
v 0.937823 -0.989584 0.989583
v 0.989584 -0.989583 -0.937665
v 1.000000 -0.937497 0.937498
v -0.937665 0.989584 0.989583
v 0.937500 -0.937498 -1.000000
v -0.989583 0.989583 -0.937502
v -0.989583 -0.989583 -0.937825
v -0.989584 -0.937505 0.989583
v -0.989583 0.989583 0.937501
v -0.989583 0.937829 -0.989584
v 0.937823 -0.989584 -0.989583
v -0.937667 0.989583 -0.989583
v 0.989584 0.937829 -0.989583
v 0.989583 -0.989583 0.937666
v 0.989583 0.989584 -0.937666
v 0.989583 0.937829 0.989584
v -0.937669 -0.989583 0.989584
v 0.937502 0.989583 0.989583
v -1.000000 0.937468 -0.937479
v 1.000000 0.937496 0.937496
v 1.000000 0.937498 -0.937498
v -0.937500 1.000000 -0.937514
v -0.937499 -1.000000 -0.937486
v 0.937500 -1.000000 -0.937501
v 0.937498 0.937499 1.000000
v 1.000000 -0.937497 -0.937497
v -0.937478 0.937466 -1.000000
v -1.000000 -0.937500 0.937493
v -1.000000 0.937496 0.937513
v 0.937499 0.937498 -1.000000
v -0.988691 -0.988691 0.966773
v -0.988691 0.966773 0.988691
v -0.988691 0.988691 -0.966773
v -0.988691 -0.966773 -0.988691
v -0.966773 -0.988691 -0.988691
v 0.966773 0.988691 -0.988691
v 0.988691 -0.966773 -0.988691
v 0.988691 -0.988691 -0.966773
v 0.988691 0.988691 0.966773
v 0.988691 -0.966773 0.988691
v 0.966773 -0.988691 0.988691
v -0.966773 0.988691 0.988691
v -0.989583 -0.989583 0.937826
v -0.989583 0.937820 0.989584
v -0.989584 -0.937490 -0.989583
v 0.937499 0.989584 -0.989583
v 0.989583 -0.937490 -0.989584
v 0.989584 -0.937490 0.989583
v -0.937666 -0.989583 -0.989584
v 0.989583 0.989584 0.937666
v -0.988691 -0.988691 -0.966773
v -0.988691 -0.966773 0.988691
v -0.988691 0.988691 0.966773
v -0.988691 0.966773 -0.988691
v 0.966773 -0.988691 -0.988691
v -0.966773 0.988691 -0.988691
v 0.988691 0.966773 -0.988691
v 0.988691 -0.988691 0.966773
v 0.988691 0.988691 -0.966773
v 0.988691 0.966773 0.988691
v -0.966773 -0.988691 0.988691
v 0.966773 0.988691 0.988691
v 0.998698 0.967448 -0.937446
v 0.967448 -0.998698 0.937448
v 0.937449 0.998698 0.967448
v 0.967447 0.998698 0.937542
v 0.937498 1.000000 -0.937494
v 0.937501 1.000000 0.020297
v 0.937451 0.998698 -0.967449
v 0.967447 0.998698 -0.937543
v -0.937543 0.998699 -0.967446
v -0.967448 0.998698 -0.937447
v -0.937451 -0.998698 0.967447
v -0.967448 -0.998698 0.937500
v -0.937451 -0.998698 -0.967448
v -0.967448 -0.998698 -0.937542
v 0.937536 -0.998699 -0.967446
v 0.967448 -0.998698 -0.937446
v -0.937499 -0.937499 1.000000
v -0.967447 -0.937455 0.998698
v -0.937543 -0.967448 0.998698
v 0.967448 -0.937444 0.998698
v 0.937543 -0.967447 0.998698
v 0.967447 0.937543 0.998698
v 0.937448 0.967448 0.998698
v 0.937500 -0.937499 1.000000
v 0.998698 -0.937435 0.967450
v 0.998698 -0.967447 0.937542
v 0.998698 -0.937445 -0.967448
v 0.998698 -0.967447 -0.937543
v 0.998698 0.937543 -0.967447
v 0.967450 -0.937436 -0.998698
v 0.937544 -0.967447 -0.998698
v -0.967448 -0.937445 -0.998698
v -0.937543 -0.967448 -0.998698
v -0.937498 -0.937500 -1.000000
v -0.967447 0.937543 -0.998698
v -0.937447 0.967448 -0.998698
v -1.000000 -0.937498 -0.937497
v -0.998698 -0.937436 -0.967450
v -0.998698 -0.967448 -0.937500
v -0.998698 -0.937449 0.967448
v -0.998698 -0.967448 0.937543
v -0.998699 0.937537 0.967446
v -0.998698 0.967448 0.937448
v -0.937498 -1.000000 0.937498
v 0.937496 1.000000 0.937498
v -0.937541 0.998698 0.967448
v -0.937499 1.000000 0.937499
v -0.967448 0.998698 0.937448
v 0.937541 -0.998698 0.967448
v 0.937500 -1.000000 0.937500
v -0.967448 0.937539 0.998698
v -0.937498 0.937499 1.000000
v -0.937448 0.967448 0.998698
v 0.998698 0.937547 0.967446
v 0.998698 0.967448 0.937449
v 0.967446 0.937548 -0.998698
v 0.937447 0.967448 -0.998698
v -0.998698 0.937548 -0.967446
v -0.998698 0.967448 -0.937448
v -0.997444 0.967279 -0.967279
v 0.967279 0.967279 -0.997444
v 0.997444 0.967279 0.967279
v -0.967279 0.967279 0.997444
v 0.967279 -0.997444 0.967279
v -0.967279 0.997444 0.967279
v 0.967279 0.997444 0.967279
v 0.967279 0.997444 -0.967279
v -0.967279 0.997444 -0.967279
v -0.967279 -0.997444 0.967279
v -0.967279 -0.997444 -0.967279
v 0.967279 -0.997444 -0.967279
v -0.967279 -0.967279 0.997444
v 0.967279 -0.967279 0.997444
v 0.967279 0.967279 0.997444
v 0.997444 -0.967279 0.967279
v 0.997444 -0.967279 -0.967279
v 0.997444 0.967279 -0.967279
v 0.967279 -0.967279 -0.997444
v -0.967279 -0.967279 -0.997444
v -0.967279 0.967279 -0.997444
v -0.997444 -0.967279 -0.967279
v -0.997444 -0.967279 0.967279
v -0.997444 0.967279 0.967279
vn 0.0215 0.7069 0.7069
vn -0.0209 0.2149 0.9764
vn 0.0209 0.2149 0.9764
vn 0.2149 -0.9764 -0.0209
vn 0.7069 -0.7070 -0.0216
vn 0.2149 -0.9764 0.0209
vn 0.9995 -0.0216 0.0216
vn 0.9764 -0.2149 0.0210
vn 0.9995 -0.0216 -0.0216
vn -0.0216 0.0216 0.9995
vn 0.0216 0.0216 0.9995
vn -0.0209 0.2149 -0.9764
vn 0.0215 0.7069 -0.7069
vn 0.0209 0.2149 -0.9764
vn -0.9764 0.0209 -0.2148
vn -0.7069 0.0218 -0.7069
vn -0.9764 -0.0209 -0.2149
vn 0.2148 0.0209 -0.9764
vn 0.7069 0.0218 -0.7069
vn 0.2149 -0.0209 -0.9764
vn 0.9764 0.0209 0.2148
vn 0.7069 0.0218 0.7069
vn 0.9764 -0.0209 0.2149
vn -0.2148 0.0209 0.9764
vn -0.0216 -0.0216 0.9995
vn 0.0216 -0.9995 -0.0216
vn 0.0216 -0.9995 0.0216
vn -0.2149 0.9764 0.0209
vn -0.0216 0.9995 0.0216
vn -0.0216 0.9995 -0.0216
vn -0.2149 -0.0209 0.9764
vn -0.7069 0.0218 0.7069
vn -0.7069 -0.0215 0.7069
vn -0.7069 0.7069 0.0215
vn -0.9764 0.2149 -0.0209
vn -0.9764 0.2149 0.0209
vn -0.2149 0.9764 -0.0209
vn 0.9995 0.0216 0.0216
vn 0.9764 0.2149 -0.0208
vn 0.9995 0.0216 -0.0216
vn 0.0216 0.0216 -0.9995
vn 0.0216 -0.0216 -0.9995
vn 0.0209 0.9764 -0.2149
vn 0.0216 0.9995 -0.0216
vn 0.7070 0.7069 -0.0216
vn 0.2149 0.9764 -0.0210
vn 0.7070 0.7069 0.0216
vn 0.0217 0.9998 -0.0000
vn 0.2149 0.9764 0.0210
vn -0.0216 0.7069 -0.7070
vn -0.0210 0.9764 -0.2149
vn -0.2148 -0.9764 -0.0209
vn -0.7069 -0.7069 0.0218
vn -0.7069 -0.7069 -0.0218
vn -0.0216 -0.9995 0.0216
vn -0.2148 -0.9764 0.0209
vn 0.0218 -0.7069 -0.7069
vn 0.0209 -0.9764 -0.2148
vn -0.0216 -0.7070 -0.7069
vn -0.0216 -0.9995 -0.0216
vn -0.0209 -0.9764 -0.2149
vn -0.0210 -0.2149 0.9764
vn -0.0216 -0.7070 0.7069
vn 0.0218 -0.7069 0.7069
vn 0.0209 -0.2148 0.9764
vn 0.0216 -0.0216 0.9995
vn 0.2149 -0.0209 0.9764
vn 0.9764 -0.0209 -0.2149
vn 0.9764 -0.2149 -0.0210
vn 0.7069 -0.7070 0.0216
vn 0.9764 0.0209 -0.2148
vn -0.0216 -0.0216 -0.9995
vn 0.0209 -0.2148 -0.9764
vn -0.0210 -0.2149 -0.9764
vn -0.2149 -0.0209 -0.9764
vn -0.0215 0.0216 -0.9995
vn -0.9995 -0.0216 -0.0216
vn -0.9764 -0.2148 -0.0209
vn -0.9764 -0.2148 0.0209
vn -0.9764 0.0209 0.2148
vn -0.9995 -0.0216 0.0216
vn -0.9764 -0.0209 0.2149
vn 0.9764 0.2149 0.0209
vn -0.9995 0.0216 -0.0215
vn -0.9995 0.0216 0.0216
vn -0.9581 0.2026 0.2025
vn -0.6956 0.6956 0.1796
vn -0.5774 0.5774 0.5773
vn -0.6956 0.1797 0.6956
vn -0.6956 -0.6956 0.1797
vn -0.9581 -0.2025 0.2026
vn -0.6956 -0.1796 0.6956
vn -0.5774 -0.5774 0.5773
vn -0.5774 -0.5774 -0.5773
vn -0.9581 -0.2026 -0.2026
vn -0.6956 -0.1796 -0.6956
vn -0.7069 -0.0215 -0.7069
vn -0.6956 -0.6956 -0.1797
vn -0.2025 0.2026 -0.9581
vn -0.1797 0.6956 -0.6956
vn -0.5774 0.5774 -0.5773
vn -0.2148 0.0209 -0.9764
vn -0.6956 0.1797 -0.6956
vn -0.1797 -0.6956 -0.6956
vn -0.2026 -0.2025 -0.9581
vn -0.7069 0.7069 -0.0215
vn -0.0209 -0.9764 0.2149
vn 0.0216 0.9995 0.0216
vn 0.0209 0.9764 0.2149
vn -0.0209 0.9764 0.2149
vn 0.5774 -0.5773 -0.5774
vn 0.2026 -0.2025 -0.9581
vn 0.6956 -0.1796 -0.6956
vn 0.7069 -0.0215 -0.7069
vn 0.1797 -0.6956 -0.6956
vn 0.9581 0.2026 -0.2025
vn 0.6956 0.6956 -0.1797
vn 0.5773 0.5774 -0.5773
vn 0.6956 0.1797 -0.6956
vn 0.6956 -0.6956 -0.1797
vn 0.9581 -0.2025 -0.2026
vn 0.5774 -0.5773 0.5773
vn 0.9581 -0.2025 0.2026
vn 0.6956 -0.1796 0.6956
vn 0.7069 -0.0215 0.7069
vn 0.6956 -0.6956 0.1797
vn 0.2025 0.2026 0.9581
vn 0.1796 0.6956 0.6956
vn 0.5774 0.5774 0.5773
vn 0.2148 0.0209 0.9764
vn 0.6956 0.1797 0.6956
vn 0.1797 -0.6956 0.6956
vn 0.2026 -0.2025 0.9581
vn -0.2026 -0.2025 0.9581
vn -0.1797 -0.6956 0.6956
vn 0.2026 -0.9581 -0.2025
vn -0.2025 -0.9581 -0.2026
vn -0.2026 -0.9581 0.2026
vn -0.2026 0.9581 -0.2025
vn -0.6956 0.6956 -0.1796
vn 0.2025 0.9581 -0.2026
vn 0.1796 0.6956 -0.6956
vn 0.2025 0.9581 0.2026
vn 0.6956 0.6956 0.1797
vn -0.1797 0.6956 0.6956
vn -0.2026 0.9581 0.2025
vn 0.0209 -0.9764 0.2148
vn 0.2026 -0.9581 0.2025
vn -0.2025 0.2026 0.9581
vn -0.0216 0.7069 0.7070
vn 0.9581 0.2026 0.2025
vn 0.2025 0.2026 -0.9581
vn -0.9581 0.2026 -0.2025
vt 0.375000 0.000000
vt 0.375000 1.000000
vt 0.125000 0.750000
vt 0.625000 0.000000
vt 0.875000 0.750000
vt 0.625000 1.000000
vt 0.375000 0.250000
vt 0.125000 0.500000
vt 0.875000 0.500000
vt 0.625000 0.250000
vt 0.375000 0.750000
vt 0.625000 0.750000
vt 0.375000 0.500000
vt 0.625000 0.500000
vt 0.375000 0.757772
vt 0.367228 0.750000
vt 0.375000 0.507792
vt 0.382816 0.742187
vt 0.625000 0.992208
vt 0.867208 0.750000
vt 0.382818 0.492187
vt 0.875000 0.507812
vt 0.625000 0.242188
vt 0.375000 0.242228
vt 0.125000 0.507772
vt 0.382812 1.000000
vt 0.382812 0.000000
vt 0.875000 0.742188
vt 0.625000 0.007812
vt 0.617229 0.250000
vt 0.375000 0.492228
vt 0.367228 0.500000
vt 0.625000 0.257792
vt 0.867208 0.500000
vt 0.617229 0.500000
vt 0.375000 0.742208
vt 0.625000 0.507792
vt 0.617229 0.750000
vt 0.132791 0.750000
vt 0.375000 0.992209
vt 0.632812 0.750000
vt 0.625000 0.757812
vt 0.617179 0.242188
vt 0.617187 0.742184
vt 0.617184 0.507813
vt 0.867182 0.507813
vt 0.132813 0.507816
vt 0.367187 0.507816
vt 0.617182 0.757813
vt 0.382817 0.507813
vt 0.617178 0.257813
vt 0.382812 0.007817
vt 0.617187 0.007816
vt 0.617184 0.492188
vt 0.375000 0.003906
vt 0.125000 0.746094
vt 0.621094 0.000000
vt 0.621094 1.000000
vt 0.875000 0.503906
vt 0.625000 0.246094
vt 0.378906 0.250000
vt 0.375000 0.253906
vt 0.128906 0.500000
vt 0.628906 0.500000
vt 0.625000 0.496094
vt 0.378906 0.500000
vt 0.375000 0.503906
vt 0.625000 0.746094
vt 0.378906 0.750000
vt 0.375000 0.753906
vt 0.371094 0.750000
vt 0.871094 0.750000
vt 0.625000 0.996094
vt 0.375000 0.007772
vt 0.125000 0.742228
vt 0.617227 0.000000
vt 0.617227 1.000000
vt 0.382814 0.250000
vt 0.632813 0.500000
vt 0.625000 0.492187
vt 0.382814 0.500000
vt 0.382814 0.750000
vt 0.132792 0.500000
vt 0.375000 0.257792
vt 0.625000 0.742208
vt 0.375000 0.246094
vt 0.125000 0.503906
vt 0.378906 0.000000
vt 0.378906 1.000000
vt 0.625000 0.003906
vt 0.875000 0.746094
vt 0.621094 0.250000
vt 0.375000 0.496094
vt 0.371094 0.500000
vt 0.625000 0.253906
vt 0.871094 0.500000
vt 0.621094 0.500000
vt 0.375000 0.746094
vt 0.625000 0.503906
vt 0.621094 0.750000
vt 0.375000 0.996094
vt 0.128906 0.750000
vt 0.625000 0.753906
vt 0.628906 0.750000
vt 0.621094 0.507819
vt 0.371094 0.742181
vt 0.632819 0.746094
vt 0.628906 0.742193
vt 0.632813 0.507816
vt 0.632812 0.627537
vt 0.632819 0.503906
vt 0.628906 0.507807
vt 0.867193 0.503906
vt 0.871094 0.507819
vt 0.132819 0.746094
vt 0.128906 0.742188
vt 0.132819 0.503906
vt 0.128906 0.507807
vt 0.367192 0.503906
vt 0.371094 0.507819
vt 0.382818 0.992187
vt 0.382818 0.996094
vt 0.378906 0.992193
vt 0.382820 0.753906
vt 0.378906 0.757807
vt 0.617193 0.753906
vt 0.621094 0.757819
vt 0.382817 0.757813
vt 0.382821 0.746094
vt 0.378906 0.742193
vt 0.382819 0.503906
vt 0.378906 0.507807
vt 0.617193 0.503906
vt 0.382821 0.496094
vt 0.378906 0.492193
vt 0.382819 0.253906
vt 0.378906 0.257807
vt 0.382813 0.257816
vt 0.617193 0.253906
vt 0.621094 0.257819
vt 0.382818 0.242187
vt 0.382821 0.246094
vt 0.378906 0.242188
vt 0.382819 0.003906
vt 0.378906 0.007807
vt 0.617192 0.003906
vt 0.621094 0.007819
vt 0.132818 0.742188
vt 0.632813 0.742182
vt 0.867193 0.746094
vt 0.867187 0.742182
vt 0.871094 0.742181
vt 0.367193 0.746094
vt 0.367187 0.742182
vt 0.617192 0.996094
vt 0.617187 0.992182
vt 0.621094 0.992181
vt 0.617194 0.746094
vt 0.621094 0.742181
vt 0.617194 0.496094
vt 0.621094 0.492181
vt 0.617194 0.246094
vt 0.621094 0.242181
vt 0.621094 0.246094
vt 0.621094 0.496094
vt 0.621094 0.746094
vt 0.621094 0.996094
vt 0.371094 0.746094
vt 0.871094 0.746094
vt 0.628906 0.746094
vt 0.628906 0.503906
vt 0.871094 0.503906
vt 0.128906 0.746094
vt 0.128906 0.503906
vt 0.371094 0.503906
vt 0.378906 0.996094
vt 0.378906 0.753906
vt 0.621094 0.753906
vt 0.378906 0.746094
vt 0.378906 0.503906
vt 0.621094 0.503906
vt 0.378906 0.496094
vt 0.378906 0.253906
vt 0.621094 0.253906
vt 0.378906 0.246094
vt 0.378906 0.003906
vt 0.621094 0.003906
s 1
usemtl Border
f 26/42/1 123/157/2 93/127/3
f 86/120/4 10/17/5 72/106/6
f 11/18/7 96/130/8 34/50/9
f 123/157/2 122/156/10 33/49/11
f 106/140/12 54/80/13 127/161/14
f 128/162/15 18/30/16 108/142/17
f 126/160/18 21/35/19 100/134/20
f 124/158/21 24/38/22 95/129/23
f 122/156/10 121/155/24 87/121/25
f 32/48/26 72/106/6 120/154/27
f 118/152/28 117/151/29 30/46/30
f 88/122/31 52/77/32 16/26/33
f 17/29/34 129/163/35 113/147/36
f 80/114/37 17/28/34 118/152/28
f 95/129/23 28/44/38 124/158/21
f 95/129/23 11/18/7 28/44/38
f 71/105/39 28/44/38 29/45/40
f 38/54/41 100/134/20 13/21/42
f 77/111/43 30/46/30 75/109/44
f 23/37/45 78/112/46 58/85/47
f 76/110/48 74/108/49 78/112/46
f 20/34/50 79/113/51 54/79/13
f 54/79/13 79/113/51 77/111/43
f 79/113/51 30/46/30 77/111/43
f 84/118/52 51/75/53 15/25/54
f 114/148/55 82/116/56 84/118/52
f 19/32/57 85/119/58 57/83/59
f 85/119/58 31/47/60 83/117/61
f 89/123/62 25/40/63 9/15/64
f 91/125/65 94/128/66 89/123/62
f 90/124/67 33/49/11 94/128/66
f 34/50/9 97/131/68 29/45/40
f 98/132/69 34/50/9 96/130/8
f 10/17/5 98/132/69 22/36/70
f 97/131/68 99/133/71 29/45/40
f 104/138/72 101/135/73 103/137/74
f 102/136/75 35/51/76 104/138/72
f 57/84/59 103/137/74 19/31/57
f 107/141/77 109/143/78 111/145/79
f 112/146/80 36/52/81 110/144/82
f 52/76/32 112/146/80 16/27/33
f 51/74/53 111/145/79 15/24/54
f 127/161/14 38/54/41 35/51/76
f 28/44/38 71/105/39 125/159/83
f 58/85/47 125/159/83 71/105/39
f 113/147/36 27/43/84 37/53/85
f 37/53/85 153/187/86 113/147/36
f 113/147/36 61/90/87 17/29/34
f 153/187/86 2/4/88 61/90/87
f 112/146/80 40/57/89 153/187/86
f 111/145/79 39/55/90 152/186/91
f 36/52/81 152/186/91 110/144/82
f 110/144/82 60/88/92 16/27/33
f 152/186/91 1/1/93 60/88/92
f 3/7/94 151/185/95 42/61/96
f 42/61/96 108/142/17 53/78/97
f 151/185/95 107/141/77 108/142/17
f 59/86/98 109/143/78 151/185/95
f 35/51/76 150/184/99 106/140/12
f 106/140/12 64/95/100 20/33/50
f 150/184/99 4/10/101 64/95/100
f 105/139/102 62/92/103 150/184/99
f 103/137/74 43/62/104 149/183/105
f 80/114/37 14/22/106 17/28/34
f 33/49/11 93/127/3 123/157/2
f 32/48/26 86/120/4 72/106/6
f 81/115/107 9/16/64 25/39/63
f 115/149/108 117/151/29 73/107/109
f 114/148/55 120/154/27 81/115/107
f 87/121/25 121/155/24 88/122/31
f 88/122/31 121/155/24 52/77/32
f 106/140/12 127/161/14 35/51/76
f 27/43/84 128/162/15 108/142/17
f 38/54/41 126/160/18 100/134/20
f 20/33/50 54/80/13 106/140/12
f 117/151/29 116/150/110 73/107/109
f 73/107/109 116/150/110 26/41/1
f 72/106/6 10/17/5 22/36/70
f 23/37/45 58/85/47 71/105/39
f 27/43/84 113/147/36 129/163/35
f 30/46/30 80/114/37 118/152/28
f 104/138/72 149/183/105 102/136/75
f 102/136/75 42/61/96 53/78/97
f 149/183/105 3/7/94 42/61/96
f 7/13/111 148/182/112 45/66/113
f 76/110/48 115/149/108 74/108/49
f 75/109/44 76/110/48 78/112/46
f 45/66/113 100/134/20 55/81/114
f 148/182/112 13/21/42 100/134/20
f 63/93/115 101/135/73 148/182/112
f 99/133/71 55/81/114 21/35/19
f 58/85/47 78/112/46 74/108/49
f 29/45/40 147/181/116 71/105/39
f 71/105/39 67/99/117 23/37/45
f 147/181/116 8/14/118 67/99/117
f 99/133/71 65/97/119 147/181/116
f 84/118/52 31/47/60 114/148/55
f 98/132/69 46/67/120 146/180/121
f 34/50/9 146/180/121 97/131/68
f 97/131/68 45/66/113 55/81/114
f 146/180/121 7/13/111 45/66/113
f 51/75/53 84/118/52 82/116/56
f 57/83/59 85/119/58 83/117/61
f 5/11/122 145/179/123 48/69/124
f 48/69/124 95/129/23 56/82/125
f 145/179/123 11/18/7 95/129/23
f 66/98/126 96/130/8 145/179/123
f 33/49/11 144/178/127 93/127/3
f 93/127/3 70/103/128 26/42/1
f 144/178/127 6/12/129 70/103/128
f 92/126/130 68/100/131 144/178/127
f 85/119/58 32/48/26 31/47/60
f 89/123/62 94/128/66 87/121/25
f 91/125/65 49/70/132 143/177/133
f 94/128/66 143/177/133 90/124/67
f 90/124/67 48/69/124 56/82/125
f 143/177/133 5/11/122 48/69/124
f 1/2/93 142/176/134 60/89/92
f 60/89/92 88/122/31 16/26/33
f 142/176/134 87/121/25 88/122/31
f 69/101/135 89/123/62 142/176/134
f 9/15/64 91/125/65 89/123/62
f 32/48/26 141/175/136 86/120/4
f 86/120/4 46/67/120 10/17/5
f 141/175/136 7/13/111 46/67/120
f 85/119/58 63/94/115 141/175/136
f 56/82/125 24/38/22 90/124/67
f 24/38/22 92/126/130 90/124/67
f 90/124/67 92/126/130 33/49/11
f 84/118/52 59/87/98 140/174/137
f 31/47/60 140/174/137 83/117/61
f 83/117/61 43/63/104 57/83/59
f 140/174/137 3/8/94 43/63/104
f 1/3/93 139/173/138 69/102/135
f 69/102/135 81/115/107 25/39/63
f 139/173/138 114/148/55 81/115/107
f 39/56/90 82/116/56 139/173/138
f 22/36/70 98/132/69 96/130/8
f 30/46/30 138/172/139 80/114/37
f 80/114/37 41/59/140 14/22/106
f 138/172/139 4/9/101 41/59/140
f 79/113/51 64/96/100 138/172/139
f 78/112/46 67/99/117 137/171/141
f 103/137/74 101/135/73 19/31/57
f 75/109/44 137/171/141 77/111/43
f 77/111/43 44/64/142 54/79/13
f 137/171/141 8/14/118 44/64/142
f 6/12/129 136/170/143 70/104/128
f 104/138/72 13/21/42 101/135/73
f 70/104/128 73/107/109 26/41/1
f 136/170/143 115/149/108 73/107/109
f 47/68/144 74/108/49 136/170/143
f 50/72/145 116/150/110 135/169/146
f 2/5/88 135/169/146 61/91/87
f 61/91/87 118/152/28 17/28/34
f 135/169/146 117/151/29 118/152/28
f 49/71/132 119/153/147 134/168/148
f 53/78/97 18/30/16 105/139/102
f 53/78/97 105/139/102 102/136/75
f 102/136/75 105/139/102 35/51/76
f 111/145/79 36/52/81 107/141/77
f 5/11/122 134/168/148 66/98/126
f 66/98/126 72/106/6 22/36/70
f 134/168/148 120/154/27 72/106/6
f 40/58/89 121/155/24 133/167/149
f 111/145/79 109/143/78 15/24/54
f 112/146/80 37/53/85 36/52/81
f 16/27/33 112/146/80 110/144/82
f 2/6/88 133/167/149 50/73/145
f 50/73/145 123/157/2 12/19/150
f 133/167/149 122/156/10 123/157/2
f 68/100/131 124/158/21 132/166/151
f 6/12/129 132/166/151 47/68/144
f 47/68/144 125/159/83 58/85/47
f 132/166/151 28/44/38 125/159/83
f 65/97/119 126/160/18 131/165/152
f 17/29/34 14/23/106 129/163/35
f 107/141/77 27/43/84 108/142/17
f 116/150/110 12/20/150 26/41/1
f 26/42/1 12/19/150 123/157/2
f 95/129/23 24/38/22 56/82/125
f 100/134/20 21/35/19 55/81/114
f 108/142/17 18/30/16 53/78/97
f 120/154/27 119/153/147 81/115/107
f 81/115/107 119/153/147 9/16/64
f 8/14/118 131/165/152 44/65/142
f 62/92/103 128/162/15 130/164/153
f 4/10/101 130/164/153 41/60/140
f 130/164/153 27/43/84 129/163/35
f 44/65/142 127/161/14 54/80/13
f 131/165/152 38/54/41 127/161/14
f 41/60/140 129/163/35 14/23/106
f 37/53/85 112/146/80 153/187/86
f 113/147/36 153/187/86 61/90/87
f 153/187/86 40/57/89 2/4/88
f 112/146/80 52/76/32 40/57/89
f 111/145/79 51/74/53 39/55/90
f 36/52/81 111/145/79 152/186/91
f 110/144/82 152/186/91 60/88/92
f 152/186/91 39/55/90 1/1/93
f 3/7/94 59/86/98 151/185/95
f 42/61/96 151/185/95 108/142/17
f 151/185/95 109/143/78 107/141/77
f 59/86/98 15/24/54 109/143/78
f 35/51/76 105/139/102 150/184/99
f 106/140/12 150/184/99 64/95/100
f 150/184/99 62/92/103 4/10/101
f 105/139/102 18/30/16 62/92/103
f 103/137/74 57/84/59 43/62/104
f 104/138/72 103/137/74 149/183/105
f 102/136/75 149/183/105 42/61/96
f 149/183/105 43/62/104 3/7/94
f 7/13/111 63/93/115 148/182/112
f 45/66/113 148/182/112 100/134/20
f 148/182/112 101/135/73 13/21/42
f 63/93/115 19/31/57 101/135/73
f 99/133/71 97/131/68 55/81/114
f 29/45/40 99/133/71 147/181/116
f 71/105/39 147/181/116 67/99/117
f 147/181/116 65/97/119 8/14/118
f 99/133/71 21/35/19 65/97/119
f 98/132/69 10/17/5 46/67/120
f 34/50/9 98/132/69 146/180/121
f 97/131/68 146/180/121 45/66/113
f 146/180/121 46/67/120 7/13/111
f 5/11/122 66/98/126 145/179/123
f 48/69/124 145/179/123 95/129/23
f 145/179/123 96/130/8 11/18/7
f 66/98/126 22/36/70 96/130/8
f 33/49/11 92/126/130 144/178/127
f 93/127/3 144/178/127 70/103/128
f 144/178/127 68/100/131 6/12/129
f 92/126/130 24/38/22 68/100/131
f 91/125/65 9/15/64 49/70/132
f 94/128/66 91/125/65 143/177/133
f 90/124/67 143/177/133 48/69/124
f 143/177/133 49/70/132 5/11/122
f 1/2/93 69/101/135 142/176/134
f 60/89/92 142/176/134 88/122/31
f 142/176/134 89/123/62 87/121/25
f 69/101/135 25/40/63 89/123/62
f 32/48/26 85/119/58 141/175/136
f 86/120/4 141/175/136 46/67/120
f 141/175/136 63/94/115 7/13/111
f 85/119/58 19/32/57 63/94/115
f 84/118/52 15/25/54 59/87/98
f 31/47/60 84/118/52 140/174/137
f 83/117/61 140/174/137 43/63/104
f 140/174/137 59/87/98 3/8/94
f 1/3/93 39/56/90 139/173/138
f 69/102/135 139/173/138 81/115/107
f 139/173/138 82/116/56 114/148/55
f 39/56/90 51/75/53 82/116/56
f 30/46/30 79/113/51 138/172/139
f 80/114/37 138/172/139 41/59/140
f 138/172/139 64/96/100 4/9/101
f 79/113/51 20/34/50 64/96/100
f 78/112/46 23/37/45 67/99/117
f 75/109/44 78/112/46 137/171/141
f 77/111/43 137/171/141 44/64/142
f 137/171/141 67/99/117 8/14/118
f 6/12/129 47/68/144 136/170/143
f 70/104/128 136/170/143 73/107/109
f 136/170/143 74/108/49 115/149/108
f 47/68/144 58/85/47 74/108/49
f 50/72/145 12/20/150 116/150/110
f 2/5/88 50/72/145 135/169/146
f 61/91/87 135/169/146 118/152/28
f 135/169/146 116/150/110 117/151/29
f 49/71/132 9/16/64 119/153/147
f 5/11/122 49/71/132 134/168/148
f 66/98/126 134/168/148 72/106/6
f 134/168/148 119/153/147 120/154/27
f 40/58/89 52/77/32 121/155/24
f 2/6/88 40/58/89 133/167/149
f 50/73/145 133/167/149 123/157/2
f 133/167/149 121/155/24 122/156/10
f 68/100/131 24/38/22 124/158/21
f 6/12/129 68/100/131 132/166/151
f 47/68/144 132/166/151 125/159/83
f 132/166/151 124/158/21 28/44/38
f 65/97/119 21/35/19 126/160/18
f 8/14/118 65/97/119 131/165/152
f 62/92/103 18/30/16 128/162/15
f 4/10/101 62/92/103 130/164/153
f 130/164/153 128/162/15 27/43/84
f 44/65/142 131/165/152 127/161/14
f 131/165/152 126/160/18 38/54/41
f 41/60/140 130/164/153 129/163/35
usemtl White
f 76/110/48 75/109/44 30/46/30
f 30/46/30 117/151/29 76/110/48
f 117/151/29 115/149/108 76/110/48
usemtl Red
f 34/50/9 28/44/38 11/18/7
f 34/50/9 29/45/40 28/44/38
usemtl Blue
f 13/21/42 35/51/76 38/54/41
f 13/21/42 104/138/72 35/51/76
usemtl Yellow
f 120/154/27 31/47/60 32/48/26
f 120/154/27 114/148/55 31/47/60
usemtl Orange
f 27/43/84 36/52/81 37/53/85
f 27/43/84 107/141/77 36/52/81
usemtl Lime
f 87/121/25 33/49/11 122/156/10
f 87/121/25 94/128/66 33/49/11
